<?xml version="1.0" encoding="UTF-8" standalone="no"?><!DOCTYPE svg PUBLIC "-//W3C//DTD SVG 1.1//EN" "http://www.w3.org/Graphics/SVG/1.1/DTD/svg11.dtd"><svg width="100%" height="100%" viewBox="0 0 209 206" version="1.1" xmlns="http://www.w3.org/2000/svg" xmlns:xlink="http://www.w3.org/1999/xlink" xml:space="preserve" xmlns:serif="http://www.serif.com/" style="fill-rule:evenodd;clip-rule:evenodd;stroke-linejoin:round;stroke-miterlimit:2;"><g><g><path d="M104.203,2.973c1.488,0 16.438,-0.413 22.567,3.844c6.066,4.211 1.734,20.811 1.039,21.52c-2.033,2.066 42.854,0.816 43.721,0.941c0.87,0.127 19.378,19.456 17.406,20.333c-7.581,3.37 -60.701,5.346 -62.065,6.092c-1.364,0.746 -4.005,31.123 -4.005,33.149c-0,1.855 39.003,-28.119 58.869,-29.023c13.586,-0.615 18.818,13.321 19.893,17.212c1.196,4.351 4.654,15.854 3.397,33.868c-0.588,8.452 -6.317,41.641 -23.942,56.077c-4.583,3.754 -14.385,8.31 -21.708,3.972c-6.283,-3.72 -33.448,-25.565 -32.605,-25.653c4.718,-0.504 12.528,2.366 16.227,-0.151c5.602,-3.81 6.012,-28.307 6.825,-36.725c0.134,-1.408 -18.609,4.715 -21.959,7.074c-3.347,2.355 -7.662,7.057 -8.788,11.27c-1.186,4.449 0.965,11.12 -0.951,11.12l-27.84,-0c-1.915,-0 0.235,-6.671 -0.954,-11.12c-1.122,-4.213 -5.434,-8.915 -8.784,-11.27c-3.353,-2.359 -22.094,-8.482 -21.959,-7.074c0.813,8.418 1.223,32.915 6.824,36.725c3.7,2.517 11.509,-0.353 16.224,0.151c0.843,0.088 -26.321,21.933 -32.598,25.653c-7.329,4.338 -17.128,-0.218 -21.711,-3.972c-17.625,-14.436 -23.354,-47.625 -23.943,-56.077c-1.256,-18.014 1.153,-26.801 3.32,-33.868c1.2,-3.908 6.382,-17.827 19.967,-17.212c19.87,0.904 58.87,30.878 58.87,29.023c-0,-2.026 -2.638,-32.403 -4.003,-33.149c-1.364,-0.746 -54.487,-2.722 -62.068,-6.092c-1.972,-0.877 16.54,-20.206 17.407,-20.333c0.87,-0.125 45.76,1.125 43.724,-0.941c-0.696,-0.709 -5.027,-17.309 1.035,-21.52c6.129,-4.257 21.082,-3.844 22.568,-3.844Z" style="fill:#d22233;"/></g><g><path d="M104.203,143.4c-0,0 -1.627,-0.047 12.863,-0.054c2.708,-0.003 31.325,43.073 33.794,46.373c1.052,1.397 -7.651,4.643 -10.292,4.522c-4.775,-0.215 -17.417,-12.476 -18.935,-13.995c-1.519,-1.519 2.321,18.253 1.233,19.553c-1.082,1.304 -18.663,2.265 -18.663,2.265c-0,0 -17.578,-0.961 -18.663,-2.265c-1.086,-1.3 2.755,-21.072 1.233,-19.553c-1.519,1.519 -14.157,13.78 -18.936,13.995c-2.637,0.121 -11.341,-3.125 -10.292,-4.522c2.473,-3.3 31.052,-46.416 33.757,-46.373c12.901,0 12.901,0.054 12.901,0.054Z" style="fill:#d22233;"/></g></g></svg>