<?xml version="1.0" encoding="UTF-8" standalone="no"?><!DOCTYPE svg PUBLIC "-//W3C//DTD SVG 1.1//EN" "http://www.w3.org/Graphics/SVG/1.1/DTD/svg11.dtd"><svg width="100%" height="100%" viewBox="0 0 500 107" version="1.1" xmlns="http://www.w3.org/2000/svg" xmlns:xlink="http://www.w3.org/1999/xlink" xml:space="preserve" xmlns:serif="http://www.serif.com/" style="fill-rule:evenodd;clip-rule:evenodd;stroke-miterlimit:2;"><g><path d="M145.057,0.749c0.782,0 8.643,-0.217 11.865,2.021c3.189,2.214 0.912,10.942 0.546,11.315c-1.069,1.086 22.532,0.429 22.988,0.495c0.457,0.067 10.189,10.229 9.152,10.69c-3.986,1.772 -31.915,2.811 -32.633,3.203c-0.717,0.393 -2.106,16.364 -2.106,17.43c0,0.975 20.507,-14.785 30.953,-15.26c7.143,-0.323 9.894,7.004 10.459,9.05c0.629,2.288 2.447,8.335 1.786,17.807c-0.309,4.443 -3.321,21.894 -12.588,29.484c-2.41,1.974 -7.564,4.369 -11.414,2.088c-3.304,-1.955 -17.586,-13.441 -17.143,-13.487c2.481,-0.265 6.587,1.244 8.532,-0.08c2.945,-2.003 3.161,-14.883 3.588,-19.309c0.071,-0.74 -9.784,2.479 -11.546,3.719c-1.759,1.239 -4.028,3.71 -4.62,5.926c-0.623,2.339 0.507,5.846 -0.5,5.846l-14.637,0c-1.008,0 0.123,-3.507 -0.502,-5.846c-0.59,-2.216 -2.857,-4.687 -4.619,-5.926c-1.763,-1.24 -11.616,-4.459 -11.546,-3.719c0.428,4.426 0.644,17.306 3.589,19.309c1.945,1.324 6.051,-0.185 8.53,0.08c0.443,0.046 -13.839,11.532 -17.14,13.487c-3.853,2.281 -9.005,-0.114 -11.415,-2.088c-9.267,-7.59 -12.279,-25.041 -12.588,-29.484c-0.661,-9.472 0.606,-14.092 1.745,-17.807c0.631,-2.055 3.355,-9.373 10.499,-9.05c10.447,0.475 30.952,16.235 30.952,15.26c-0,-1.066 -1.387,-17.037 -2.104,-17.43c-0.718,-0.392 -28.649,-1.431 -32.635,-3.203c-1.037,-0.461 8.696,-10.623 9.152,-10.69c0.458,-0.066 24.06,0.591 22.99,-0.495c-0.366,-0.373 -2.643,-9.101 0.544,-11.315c3.222,-2.238 11.085,-2.021 11.866,-2.021Z" style="fill:#d22233;"/><path d="M145.057,74.583c-0,0 -0.856,-0.025 6.763,-0.028c1.424,-0.002 16.47,22.646 17.768,24.381c0.553,0.735 -4.023,2.442 -5.411,2.378c-2.511,-0.113 -9.158,-6.56 -9.956,-7.358c-0.799,-0.799 1.221,9.597 0.648,10.281c-0.569,0.685 -9.812,1.191 -9.812,1.191c-0,-0 -9.243,-0.506 -9.813,-1.191c-0.571,-0.684 1.449,-11.08 0.648,-10.281c-0.798,0.798 -7.443,7.245 -9.956,7.358c-1.387,0.064 -5.963,-1.643 -5.411,-2.378c1.3,-1.735 16.327,-24.404 17.749,-24.381c6.783,-0 6.783,0.028 6.783,0.028Z" style="fill:#d22233;"/><path d="M40.389,27.746l0.36,-0c2.884,-14.785 13.882,-23.076 29.025,-23.076c12.618,-0 23.795,9.554 23.795,22.533c-0,9.196 -5.769,17.668 -15.504,17.668c-6.849,0 -12.618,-4.507 -12.618,-11.717c-0,-2.525 1.081,-4.868 2.163,-7.032c-20.191,-1.442 -20.732,25.959 -20.732,40.383c0,10.636 1.081,12.619 3.246,12.619c0.901,-0 1.802,-0.361 2.703,-0.723c1.081,-0.36 2.164,-0.541 3.245,-0.541c5.949,0 7.933,4.868 7.933,10.278c0,6.848 -3.065,12.438 -9.014,12.438c-9.735,-0 -16.947,-1.802 -24.337,-1.802c-6.852,-0 -13.702,1.802 -20.191,1.802c-5.949,-0 -9.014,-5.59 -9.014,-12.438c-0,-5.41 1.982,-10.278 7.933,-10.278c1.261,0 2.162,0.361 3.245,0.541c0.901,0.182 1.802,0.723 2.703,0.723c2.163,-0 3.246,-1.802 3.246,-12.619l-0,-25.961c-0,-11.176 -0.903,-12.618 -3.246,-12.618c-1.802,-0 -3.606,1.261 -5.948,1.261c-5.951,0 -7.933,-4.867 -7.933,-10.275c-0,-6.85 3.065,-12.438 9.014,-12.438c5.228,-0 8.832,1.802 12.438,1.802c3.966,-0 7.753,-1.802 11.899,-1.802c3.965,-0 5.589,1.259 5.589,7.75l-0,13.522Z" style="fill:#231f20;fill-rule:nonzero;"/><path d="M40.389,27.746l0.36,-0c2.884,-14.785 13.882,-23.076 29.025,-23.076c12.618,-0 23.795,9.554 23.795,22.533c-0,9.196 -5.769,17.668 -15.504,17.668c-6.849,0 -12.618,-4.507 -12.618,-11.717c-0,-2.525 1.081,-4.868 2.163,-7.032c-20.191,-1.442 -20.732,25.959 -20.732,40.383c0,10.636 1.081,12.619 3.246,12.619c0.901,-0 1.802,-0.361 2.703,-0.723c1.081,-0.36 2.164,-0.541 3.245,-0.541c5.949,0 7.933,4.868 7.933,10.278c0,6.848 -3.065,12.438 -9.014,12.438c-9.735,-0 -16.947,-1.802 -24.337,-1.802c-6.852,-0 -13.702,1.802 -20.191,1.802c-5.949,-0 -9.014,-5.59 -9.014,-12.438c-0,-5.41 1.982,-10.278 7.933,-10.278c1.261,0 2.162,0.361 3.245,0.541c0.901,0.182 1.802,0.723 2.703,0.723c2.163,-0 3.246,-1.802 3.246,-12.619l-0,-25.961c-0,-11.176 -0.903,-12.618 -3.246,-12.618c-1.802,-0 -3.606,1.261 -5.948,1.261c-5.951,0 -7.933,-4.867 -7.933,-10.275c-0,-6.85 3.065,-12.438 9.014,-12.438c5.228,-0 8.832,1.802 12.438,1.802c3.966,-0 7.753,-1.802 11.899,-1.802c3.965,-0 5.589,1.259 5.589,7.75l-0,13.522Z" style="fill:none;stroke:#231f20;stroke-width:0.88px;"/><path d="M278.869,84.17c-1.44,3.968 -3.604,9.915 -6.85,12.98c-3.065,2.885 -5.047,3.426 -8.653,3.426c-4.147,-0 -6.85,-1.802 -10.456,-1.802c-3.604,-0 -7.03,1.802 -10.454,1.802c-6.311,-0 -8.293,-1.083 -12.62,-12.981l-16.765,-46.33c-3.246,-8.834 -4.507,-12.258 -7.573,-12.258c-1.622,0 -3.244,0.361 -4.867,0.361c-5.949,-0 -7.931,-4.868 -7.931,-10.276c-0,-7.03 3.063,-12.618 9.194,-12.618c5.769,-0 11.177,1.802 18.025,1.802c7.392,-0 14.604,-1.802 22.355,-1.802c6.669,-0 9.555,4.144 9.555,10.816c-0,4.685 -1.804,9.733 -7.209,10.275c-2.525,0.361 -4.509,0.181 -4.509,3.424c0,2.165 1.802,7.212 2.345,9.375l11.897,39.12l0.361,0l12.8,-39.12c0.719,-1.802 2.882,-7.753 2.882,-9.375c-0,-5.948 -11.898,0.181 -11.898,-13.519c0,-6.311 3.066,-10.996 9.735,-10.996c5.23,-0 11.179,1.802 17.127,1.802c6.31,-0 12.439,-1.802 19.11,-1.802c7.571,-0 10.634,5.588 10.634,12.618c0,5.408 -1.982,10.276 -7.931,10.276c-1.443,-0 -2.885,-0.541 -4.146,-0.541c-2.343,-0 -3.785,1.982 -6.49,9.012l-17.668,46.331Z" style="fill:#231f20;fill-rule:nonzero;"/><path d="M278.869,84.17c-1.44,3.968 -3.604,9.915 -6.85,12.98c-3.065,2.885 -5.047,3.426 -8.653,3.426c-4.147,-0 -6.85,-1.802 -10.456,-1.802c-3.604,-0 -7.03,1.802 -10.454,1.802c-6.311,-0 -8.293,-1.083 -12.62,-12.981l-16.765,-46.33c-3.246,-8.834 -4.507,-12.258 -7.573,-12.258c-1.622,0 -3.244,0.361 -4.867,0.361c-5.949,-0 -7.931,-4.868 -7.931,-10.276c-0,-7.03 3.063,-12.618 9.194,-12.618c5.769,-0 11.177,1.802 18.025,1.802c7.392,-0 14.604,-1.802 22.355,-1.802c6.669,-0 9.555,4.144 9.555,10.816c-0,4.685 -1.804,9.733 -7.209,10.275c-2.525,0.361 -4.509,0.181 -4.509,3.424c0,2.165 1.802,7.212 2.345,9.375l11.897,39.12l0.361,0l12.8,-39.12c0.719,-1.802 2.882,-7.753 2.882,-9.375c-0,-5.948 -11.898,0.181 -11.898,-13.519c0,-6.311 3.066,-10.996 9.735,-10.996c5.23,-0 11.179,1.802 17.127,1.802c6.31,-0 12.439,-1.802 19.11,-1.802c7.571,-0 10.634,5.588 10.634,12.618c0,5.408 -1.982,10.276 -7.931,10.276c-1.443,-0 -2.885,-0.541 -4.146,-0.541c-2.343,-0 -3.785,1.982 -6.49,9.012l-17.668,46.331Z" style="fill:none;stroke:#231f20;stroke-width:0.88px;"/><path d="M348.076,58.392c-4.687,0 -5.228,0.721 -5.228,3.785c0,10.275 8.111,18.028 18.569,18.028c6.307,-0 9.555,-1.622 14.602,-7.032c5.767,-6.129 7.751,-7.21 13.702,-7.21c7.028,-0 12.438,4.147 12.438,11.359c0,13.699 -17.666,25.597 -41.104,25.597c-29.562,-0 -47.953,-19.831 -47.953,-49.036c0,-28.482 17.668,-50.114 47.234,-50.114c27.763,-0 43.445,16.584 43.445,43.266c-0,8.292 -1.083,11.357 -11.898,11.357l-43.807,0Zm21.454,-20.01c4.145,-0 4.507,-1.083 4.507,-3.066c0,-4.867 -4.507,-11.176 -13.523,-11.176c-9.194,-0 -16.765,7.03 -16.765,11.717c0,2.344 2.345,2.525 7.571,2.525l18.21,-0Z" style="fill:#231f20;fill-rule:nonzero;"/><path d="M348.076,58.392c-4.687,0 -5.228,0.721 -5.228,3.785c0,10.275 8.111,18.028 18.569,18.028c6.307,-0 9.555,-1.622 14.602,-7.032c5.767,-6.129 7.751,-7.21 13.702,-7.21c7.028,-0 12.438,4.147 12.438,11.359c0,13.699 -17.666,25.597 -41.104,25.597c-29.562,-0 -47.953,-19.831 -47.953,-49.036c0,-28.482 17.668,-50.114 47.234,-50.114c27.763,-0 43.445,16.584 43.445,43.266c-0,8.292 -1.083,11.357 -11.898,11.357l-43.807,0Zm21.454,-20.01c4.145,-0 4.507,-1.083 4.507,-3.066c0,-4.867 -4.507,-11.176 -13.523,-11.176c-9.194,-0 -16.765,7.03 -16.765,11.717c0,2.344 2.345,2.525 7.571,2.525l18.21,-0Z" style="fill:none;stroke:#231f20;stroke-width:0.88px;"/><path d="M446.064,27.746l0.36,-0c2.885,-14.785 13.882,-23.076 29.025,-23.076c12.62,-0 23.797,9.554 23.797,22.533c-0,9.196 -5.769,17.668 -15.506,17.668c-6.85,0 -12.616,-4.507 -12.616,-11.717c-0,-2.525 1.079,-4.868 2.16,-7.032c-20.189,-1.442 -20.729,25.959 -20.729,40.383c-0,10.636 1.079,12.619 3.244,12.619c0.902,-0 1.802,-0.361 2.705,-0.723c1.081,-0.36 2.164,-0.541 3.243,-0.541c5.949,0 7.933,4.868 7.933,10.278c0,6.848 -3.063,12.438 -9.012,12.438c-9.737,-0 -16.947,-1.802 -24.339,-1.802c-6.85,-0 -13.7,1.802 -20.189,1.802c-5.949,-0 -9.015,-5.59 -9.015,-12.438c0,-5.41 1.983,-10.278 7.932,-10.278c1.261,0 2.164,0.361 3.245,0.541c0.901,0.182 1.802,0.723 2.705,0.723c2.163,-0 3.246,-1.802 3.246,-12.619l-0,-25.961c-0,-11.176 -0.903,-12.618 -3.246,-12.618c-1.804,-0 -3.606,1.261 -5.95,1.261c-5.949,0 -7.932,-4.867 -7.932,-10.275c0,-6.85 3.066,-12.438 9.015,-12.438c5.227,-0 8.834,1.802 12.438,1.802c3.964,-0 7.751,-1.802 11.897,-1.802c3.967,-0 5.589,1.259 5.589,7.75l-0,13.522Z" style="fill:#231f20;fill-rule:nonzero;"/><path d="M446.064,27.746l0.36,-0c2.885,-14.785 13.882,-23.076 29.025,-23.076c12.62,-0 23.797,9.554 23.797,22.533c-0,9.196 -5.769,17.668 -15.506,17.668c-6.85,0 -12.616,-4.507 -12.616,-11.717c-0,-2.525 1.079,-4.868 2.16,-7.032c-20.189,-1.442 -20.729,25.959 -20.729,40.383c-0,10.636 1.079,12.619 3.244,12.619c0.902,-0 1.802,-0.361 2.705,-0.723c1.081,-0.36 2.164,-0.541 3.243,-0.541c5.949,0 7.933,4.868 7.933,10.278c0,6.848 -3.063,12.438 -9.012,12.438c-9.737,-0 -16.947,-1.802 -24.339,-1.802c-6.85,-0 -13.7,1.802 -20.189,1.802c-5.949,-0 -9.015,-5.59 -9.015,-12.438c0,-5.41 1.983,-10.278 7.932,-10.278c1.261,0 2.164,0.361 3.245,0.541c0.901,0.182 1.802,0.723 2.705,0.723c2.163,-0 3.246,-1.802 3.246,-12.619l-0,-25.961c-0,-11.176 -0.903,-12.618 -3.246,-12.618c-1.804,-0 -3.606,1.261 -5.95,1.261c-5.949,0 -7.932,-4.867 -7.932,-10.275c0,-6.85 3.066,-12.438 9.015,-12.438c5.227,-0 8.834,1.802 12.438,1.802c3.964,-0 7.751,-1.802 11.897,-1.802c3.967,-0 5.589,1.259 5.589,7.75l-0,13.522Z" style="fill:none;stroke:#231f20;stroke-width:0.88px;"/></g></svg>