<?xml version="1.0" encoding="UTF-8" standalone="no"?><!DOCTYPE svg PUBLIC "-//W3C//DTD SVG 1.1//EN" "http://www.w3.org/Graphics/SVG/1.1/DTD/svg11.dtd"><svg width="100%" height="100%" viewBox="0 0 700 700" version="1.1" xmlns="http://www.w3.org/2000/svg" xmlns:xlink="http://www.w3.org/1999/xlink" xml:space="preserve" xmlns:serif="http://www.serif.com/" style="fill-rule:evenodd;clip-rule:evenodd;stroke-linejoin:round;stroke-miterlimit:2;"><g><path d="M560.001,0l-420.002,0c-37.119,0.041 -72.704,14.801 -98.948,41.051c-26.25,26.244 -41.01,61.829 -41.051,98.948l-0,420.002c0.041,37.119 14.801,72.704 41.051,98.948c26.244,26.25 61.829,41.01 98.948,41.051l420.002,0c37.119,-0.035 72.704,-14.801 98.954,-41.045c26.244,-26.25 41.01,-61.835 41.045,-98.954l0,-420.002c-0.035,-37.119 -14.801,-72.704 -41.045,-98.954c-26.25,-26.244 -61.835,-41.01 -98.954,-41.045Zm70.003,559.998c-0.024,18.557 -7.407,36.351 -20.527,49.476c-13.125,13.12 -30.919,20.503 -49.476,20.527l-420.002,-0c-18.557,-0.018 -36.351,-7.401 -49.476,-20.527c-13.126,-13.125 -20.509,-30.919 -20.527,-49.476l0,-420.002c0.018,-18.557 7.401,-36.351 20.527,-49.476c13.125,-13.126 30.919,-20.509 49.476,-20.527l420.002,0c18.557,0.024 36.351,7.407 49.476,20.527c13.12,13.125 20.503,30.919 20.527,49.476l-0,420.002Z" style="fill:#fff;fill-rule:nonzero;"/><path d="M350,193.849c-41.414,0 -81.129,16.46 -110.408,45.744c-29.28,29.285 -45.726,69.001 -45.72,110.415c-0,41.413 16.453,81.129 45.738,110.408c29.285,29.278 69,45.732 110.414,45.726c41.414,-0 81.129,-16.454 110.408,-45.732c29.285,-29.285 45.732,-69.001 45.732,-110.415c-0.046,-41.403 -16.512,-81.093 -45.79,-110.367c-29.279,-29.274 -68.971,-45.738 -110.374,-45.78l-0,0.001Zm-0,242.296c-22.845,-0.005 -44.754,-9.087 -60.908,-25.242c-16.155,-16.159 -25.224,-38.074 -25.224,-60.92c0.006,-22.845 9.082,-44.76 25.242,-60.907c16.155,-16.155 38.069,-25.23 60.914,-25.23c22.845,0.005 44.76,9.082 60.914,25.236c16.153,16.154 25.23,38.068 25.23,60.913c-0.023,22.846 -9.111,44.743 -25.266,60.898c-16.155,16.149 -38.057,25.23 -60.904,25.254l0.002,-0.002Z" style="fill:#fff;fill-rule:nonzero;"/></g></svg>