<?xml version="1.0" encoding="UTF-8" standalone="no"?><!DOCTYPE svg PUBLIC "-//W3C//DTD SVG 1.1//EN" "http://www.w3.org/Graphics/SVG/1.1/DTD/svg11.dtd"><svg width="100%" height="100%" viewBox="0 0 700 700" version="1.1" xmlns="http://www.w3.org/2000/svg" xmlns:xlink="http://www.w3.org/1999/xlink" xml:space="preserve" xmlns:serif="http://www.serif.com/" style="fill-rule:evenodd;clip-rule:evenodd;stroke-linejoin:round;stroke-miterlimit:2;"><g><path d="M94.274,129.129l511.452,0c51.85,0 94.274,43.096 94.274,96.969l0,247.804c0,53.873 -42.424,96.969 -94.274,96.969l-511.452,-0c-51.85,-0 -94.274,-43.096 -94.274,-96.969l0,-247.804c0,-53.873 42.424,-96.969 94.274,-96.969Zm9.427,36.634l494.943,0c40.069,0 61.278,38.787 61.278,79.731l-0,211.17c-0,43.096 -21.215,77.573 -61.278,77.573l-494.943,-0c-42.423,-0 -65.991,-34.477 -65.991,-77.573l-0,-217.641c-0,-40.943 23.568,-73.263 65.991,-73.263l0,0.003Z" style="fill:#fff;"/><path d="M459.591,351.074l-108.419,64.649l-110.774,64.644l-0,-260.734l110.774,64.644l108.419,66.797Z" style="fill:#fff;"/></g></svg>