<?xml version="1.0" encoding="UTF-8" standalone="no"?><!DOCTYPE svg PUBLIC "-//W3C//DTD SVG 1.1//EN" "http://www.w3.org/Graphics/SVG/1.1/DTD/svg11.dtd"><svg width="100%" height="100%" viewBox="0 0 134 134" version="1.1" xmlns="http://www.w3.org/2000/svg" xmlns:xlink="http://www.w3.org/1999/xlink" xml:space="preserve" xmlns:serif="http://www.serif.com/" style="fill-rule:evenodd;clip-rule:evenodd;stroke-linejoin:round;stroke-miterlimit:2;"><g><g><path d="M66.69,1.933c0.952,0 10.52,-0.268 14.443,2.5c3.882,2.739 1.11,13.534 0.665,13.995c-1.302,1.344 27.426,0.531 27.981,0.612c0.557,0.083 12.402,12.653 11.14,13.223c-4.852,2.192 -38.848,3.477 -39.721,3.962c-0.874,0.485 -2.564,20.24 -2.564,21.558c0,1.206 24.962,-18.287 37.676,-18.875c8.695,-0.399 12.044,8.663 12.732,11.193c0.765,2.83 2.978,10.311 2.174,22.026c-0.376,5.496 -4.043,27.08 -15.323,36.468c-2.933,2.441 -9.207,5.404 -13.893,2.583c-4.021,-2.419 -21.407,-16.626 -20.867,-16.683c3.019,-0.327 8.017,1.539 10.385,-0.098c3.585,-2.478 3.848,-18.409 4.368,-23.883c0.086,-0.916 -11.91,3.066 -14.054,4.6c-2.142,1.532 -4.903,4.589 -5.624,7.33c-0.759,2.893 0.617,7.231 -0.608,7.231l-17.818,-0c-1.226,-0 0.15,-4.338 -0.611,-7.231c-0.718,-2.741 -3.477,-5.798 -5.621,-7.33c-2.147,-1.534 -14.141,-5.516 -14.055,-4.6c0.521,5.474 0.783,21.405 4.368,23.883c2.368,1.637 7.366,-0.229 10.383,0.098c0.54,0.057 -16.845,14.264 -20.863,16.683c-4.69,2.821 -10.961,-0.142 -13.895,-2.583c-11.279,-9.388 -14.946,-30.972 -15.323,-36.468c-0.804,-11.715 0.738,-17.43 2.125,-22.026c0.768,-2.541 4.084,-11.592 12.779,-11.193c12.717,0.588 37.676,20.081 37.676,18.875c0,-1.318 -1.688,-21.073 -2.561,-21.558c-0.873,-0.485 -34.872,-1.77 -39.724,-3.962c-1.262,-0.57 10.586,-13.14 11.14,-13.223c0.557,-0.081 29.287,0.732 27.984,-0.612c-0.445,-0.461 -3.217,-11.256 0.662,-13.995c3.923,-2.768 13.493,-2.5 14.444,-2.5Z" style="fill:#d22233;"/></g><g><path d="M66.69,93.256c-0,0 -1.041,-0.03 8.232,-0.035c1.734,-0.002 20.048,28.011 21.629,30.157c0.673,0.909 -4.897,3.02 -6.588,2.942c-3.056,-0.14 -11.146,-8.114 -12.118,-9.102c-0.972,-0.988 1.486,11.87 0.789,12.716c-0.692,0.848 -11.944,1.473 -11.944,1.473c-0,-0 -11.25,-0.625 -11.945,-1.473c-0.694,-0.846 1.764,-13.704 0.79,-12.716c-0.973,0.988 -9.061,8.962 -12.119,9.102c-1.688,0.078 -7.258,-2.033 -6.587,-2.942c1.583,-2.146 19.873,-30.185 21.605,-30.157c8.256,0 8.256,0.035 8.256,0.035Z" style="fill:#d22233;"/></g></g></svg>